<?xml version="1.0" encoding="utf-8"?>
<!-- Uploaded to: SVG Repo, www.svgrepo.com, Generator: SVG Repo Mixer Tools -->
<svg width="800px" height="800px" viewBox="0 0 128 128" xmlns="http://www.w3.org/2000/svg">
  <path d="M61.53 89.7s1.87 7.96 12.23 13.88c6.53 3.73 20.26 7.6 27.27 2.42c7.98-5.9 9.7-11.74 10.08-13.89c.38-2.15-.76-8.08-.76-8.08l-13.13-4.67s-21.71 5.3-22.09 5.3c-.37.01-13.6 5.04-13.6 5.04z" fill="#e06767"/>
  <path d="M110.39 94.67c.29-.75.47-1.39.6-1.92c-2.32-.62-5.01-1.62-7.45-2.66c.2-.09.4-.18.59-.28c1.2-.61 2.38-1.32 3.23-2.36c.92-1.12 1.34-2.57 1.29-4.02l-11.43-4.07s-21.71 5.3-22.09 5.3c-.38 0-13.6 5.03-13.61 5.04c-.17.06 1.23 3 1.32 3.15c1.27 2.37 4.19 5.67 6.19 7.46c0 0-.92-2.12.82-2.91c.77-.35 1.7-.18 2.49.13c1.98.79 4.46 3.83 10.66 7.09c4.21 2.22 8.54 3.92 9.94 3.86c1.87-.08 5.26-.99 5.26-.99s-4.32-.41-11.26-3.64c-2.1-.98-9.87-4.8-10.61-6.93c-.21-.6-.96-1.66.4-2.26c2.08-.93 7.75 3.96 12.62 6.2c5.8 2.66 12.12 4.79 12.12 4.79c.68-.52 1.32-1.04 1.92-1.56c-3.23-.83-6.39-1.97-9.44-3.3c-3.04-1.32-6.02-3.03-8.77-4.91c-1.75-1.2-2.96-3.22-1.08-3.48c3.08-.43 7.06 2.5 11.05 4.57c3.6 1.87 7.92 2.73 11.97 3.24c.52-.65 1.37-1.89 1.37-1.89s-1.53-.26-6.05-1.26c-1.98-.44-3.9-1.01-5.66-2c-.46-.26-2.07-1.91.13-2.67s4.29.75 7.61 1.52c3.33.79 5.84.83 5.87.76z" fill="#b05353"/>
  <path d="M118 53.3s-.25-8.1-4.6-15.27c-3.75-6.18-9.1-6.81-9.1-6.81s-1.06-3.89-4.78-6.87s-11.37-5.47-11.37-5.47c-15.32-6.9-24.87-1.25-24.87-1.25s-22.72-5.4-40.91 10.03c0 0-9.18 4.32-12.93 12.48c-2.07 4.52-1.18 11.89-1.18 11.89c-6.37 7.4-4.62 19.12 2.53 24.99c3.41 2.79 7.62 4.64 12.01 5.11c1.72.18 2.59-.23 3.31 1.52c1.06 2.58 1.89 5.23 4.02 7.08c2.17 1.88 4.7 3.34 7.39 4.34c5.22 1.93 11.12 2.14 16.39.25c1.75-.63 7.36-.69 7.36-.69s2.97 2.45 13.51 2.06s14.99-4.94 17.4-5.79c1.85-.65 4.12-2.08 6.14-1.71c1.15.21 2.18.8 3.23 1.3c2.94 1.41 6.24 2.18 9.48 1.88c12.25-1.13 13.54-15.24 12.33-24.94C122.14 57.64 118 53.3 118 53.3z" fill="#ffb3b3"/>
</svg>
