<?xml version="1.0" encoding="iso-8859-1"?>
<!-- Uploaded to: SVG Repo, www.svgrepo.com, Generator: SVG Repo Mixer Tools -->
<svg height="800px" width="800px" version="1.1" xmlns="http://www.w3.org/2000/svg" viewBox="0 0 511.986 511.986" xml:space="preserve">
  <polygon style="fill:#D94452;" points="300.21,302.241 277.587,324.866 187.128,234.391 209.752,211.767 262.524,219.305 292.68,249.461"/>
  <path style="fill:#EC5564;" d="M217.306,264.522l7.539-7.539c4.164-4.163,4.164-10.921,0-15.085c-4.164-4.156-10.914-4.156-15.078,0l-7.539,7.539c-0.008,0.008-0.016,0.023-0.023,0.023l15.078,15.084C217.29,264.538,217.298,264.53,217.306,264.522z"/>
  <polygon style="fill:#E6E9ED;" points="247.438,294.71 98.075,444.065 82.997,474.22 30.218,511.923 0.062,481.766 37.764,428.987 67.92,413.909 217.283,264.546"/>
  <path style="fill:#EC5564;" d="M508.799,78.583c4.156,4.164,4.156,10.906,0,15.078L322.835,279.616c-4.172,4.172-10.922,4.172-15.078,0l-75.388-75.388c-4.172-4.164-4.172-10.914,0-15.078L418.332,3.187c4.156-4.164,10.906-4.164,15.062,0L508.799,78.583z"/>
  <path style="fill:#FFCE54;" d="M45.241,28.991l72.373,48.256l3.016,27.14L52.78,202.4l82.935,7.531c0,0,220.745,250.916,245.728,275.898c24.983,25,65.498,25,90.481,0c24.969-24.982,24.969-65.482,0-90.467c-8.202-8.203-275.897-245.742-275.897-245.742s19.28-57.53-5.82-94.919C130.84-33.742,45.241,28.991,45.241,28.991z"/>
</svg>
